<?xml version="1.0" encoding="utf-8"?>
<!-- Generator: Adobe Illustrator 16.0.0, SVG Export Plug-In . SVG Version: 6.00 Build 0)  -->
<!DOCTYPE svg PUBLIC "-//W3C//DTD SVG 1.1//EN" "http://www.w3.org/Graphics/SVG/1.1/DTD/svg11.dtd">
<svg version="1.1" id="Layer_1" xmlns="http://www.w3.org/2000/svg" xmlns:xlink="http://www.w3.org/1999/xlink" x="0px" y="0px"
	 width="1400px" height="620px" viewBox="0 0 1400 620" enable-background="new 0 0 1400 620" xml:space="preserve">
<g id="overlay">
	<g>
		<rect x="60.512" y="267.598" fill="#1D1E27" width="9.643" height="3.553"/>
		<path opacity="0.5" fill="#002B33" enable-background="new    " d="M736.66,233.776H494.147H228.571H85.897v-1.282h-5.763
			c-0.682,0-17.003,0.126-34.843,10.991c-29.35,17.886-39.795,50.537-43.388,74.892l-0.036,0.004
			c0.008,0.045,0.016,0.089,0.018,0.133c-0.002,0.041-0.01,0.085-0.018,0.127l0.036,0.004c6.481,43.991,27.161,65.009,43.388,74.896
			c17.84,10.865,34.161,10.99,34.843,10.99h5.763v-0.645h142.674h265.576l242.54-0.479c0,0,29.239,2.733,26.296-57.076v-96.692
			c0,0-0.423-24.822-19.563-26.294"/>
		<path fill="#393335" stroke="#231F20" stroke-miterlimit="10" d="M726.431,217.355h-50.766v-0.003H175.757v-1.279h-13.608v1.279
			h-39.156v-1.279h-11.605c-0.076,0-0.335,0.002-0.745,0.017l-0.279-0.011c-1.261-0.051-2.542-0.077-3.808-0.077
			c-26.826,0-53.603,11.591-73.499,31.835c-9.672,10.311-16.64,21.022-21.931,33.71c-1.817,4.36-2.681,9.189-3.532,13.945
			c-0.77,4.304-1.498,8.369-2.873,11.669l-0.62,1.479l0.326,1.545c8.571,41.116,43.096,86.607,98.642,89.327l1.943,0.096
			l0.026-0.344c3.745,0.515,6.085,0.532,6.347,0.532h11.605v-0.642h39.156v0.639h13.608v-0.639h499.904v-0.001h50.766
			c17.209,0,31.209-13.999,31.209-31.205V248.56C757.636,231.354,743.637,217.355,726.431,217.355z"/>
		<g id="Layer_1_2_">
			<line fill="none" stroke="#FFFFFF" stroke-miterlimit="10" x1="141.043" y1="227.492" x2="649.042" y2="227.492"/>
			<g>
				<path fill="#292B2C" d="M116.752,392.204h142.669H525h148.268c13.986,0,25.367-11.376,25.367-25.363V247.453
					c0-13.987-11.381-25.363-25.365-25.363H525.001h-265.58H116.752v-1.281h-5.768c-0.684,0-17.002,0.126-34.838,10.993
					c-29.353,17.887-39.799,50.537-43.389,74.892l-0.038,0.008c0.005,0.043,0.011,0.085,0.018,0.129
					c-0.007,0.043-0.013,0.085-0.018,0.129l0.038,0.008c6.48,43.985,27.162,65.004,43.389,74.891
					c17.836,10.864,34.154,10.991,34.838,10.991h5.768V392.204z"/>
				<path fill="#292B2C" d="M162.752,392.204h142.669H571h148.268c13.986,0,25.367-11.376,25.367-25.363V247.453
					c0-13.987-11.381-25.363-25.365-25.363H571.001h-265.58H162.752v-1.281h-5.768c-0.684,0-17.002,0.126-34.838,10.993
					c-29.353,17.887-39.799,50.537-43.389,74.892l-0.038,0.008c0.005,0.043,0.011,0.085,0.018,0.129
					c-0.007,0.043-0.013,0.085-0.018,0.129l0.038,0.008c6.48,43.985,27.162,65.004,43.389,74.891
					c17.836,10.864,34.154,10.991,34.838,10.991h5.768V392.204z"/>
				<path fill="#231F20" d="M29.332,302.537l0.967-0.138c4.091-24.76,15.243-56.794,44.742-74.771
					c18.753-11.422,36.116-11.555,36.847-11.555h9.605v1.279h552.672v7.687H113.807v-1.281h-1.92
					c-0.641,0-15.918,0.116-32.847,10.433c-27.933,17.019-38.003,48.317-41.52,71.743c6.329,42.231,26.058,62.325,41.52,71.743
					c16.929,10.314,32.206,10.436,32.847,10.436h1.92v-0.643h560.354v7.687H121.493v0.642h-9.605
					c-0.73,0-18.094-0.133-36.844-11.555c-16.564-10.092-37.589-31.234-44.749-74.79l-0.924-0.141l0.395-3.375L29.332,302.537z"/>
				<path fill="#7D7E80" d="M86.418,305.799l-0.038,0.004c0.004,0.043,0.012,0.089,0.015,0.13c-0.003,0.044-0.011,0.084-0.015,0.132
					l0.038,0.004"/>
				<rect x="713.923" y="246.56" fill="#424447" width="7.683" height="119.389"/>
				<rect x="711.255" y="246.56" fill="#FFFFFF" width="7.683" height="119.389"/>
				<rect x="731.854" y="246.56" fill="#424447" width="7.684" height="119.389"/>
				<path fill="none" d="M29.332,302.537l0.965-0.137c4.092-24.763,15.243-56.796,44.744-74.772
					c18.751-11.422,36.114-11.554,36.847-11.554h9.605v1.278h552.67v7.687H113.807v-1.281h-1.92
					c-0.643,0-15.918,0.119-32.847,10.433c-27.933,17.017-38.003,48.317-41.522,71.742c6.334,42.233,26.062,62.326,41.522,71.744
					c16.929,10.315,32.204,10.435,32.847,10.435h1.92v-0.642h560.354v7.688H121.493v0.639h-9.605
					c-0.732,0-18.096-0.134-36.844-11.555C58.48,374.15,37.453,353.006,30.293,309.45l-0.922-0.138l0.396-3.377L29.332,302.537z"/>
				<path fill="none" d="M164.645,391.952h5.768v-0.642h142.669H578.66h148.269c13.984,0,25.365-11.378,25.365-25.361V246.564
					c0-13.988-11.381-25.366-25.363-25.366h-148.27H313.083h-142.67v-1.282h-5.768"/>
				<path fill="none" d="M86.418,305.8l-0.037,0.003c0.007,0.043,0.011,0.09,0.018,0.129c-0.007,0.043-0.011,0.086-0.018,0.132
					l0.037,0.002"/>
				<path fill="none" d="M164.645,391.952h5.768v-0.642h142.669H578.66h148.267c13.984,0,25.363-11.378,25.363-25.361V246.564
					c0-13.988-11.379-25.366-25.361-25.366H578.661H313.083h-142.67v-1.282h-5.768"/>
				<path fill="none" d="M86.418,305.8l-0.037,0.003c0.003,0.043,0.011,0.09,0.014,0.129c-0.003,0.043-0.011,0.086-0.014,0.132
					l0.037,0.002"/>
				<rect x="731.854" y="246.56" fill="none" width="7.684" height="119.386"/>
				<path fill="#231F20" d="M174.257,395.794h-9.608v-7.685h1.924v-0.642h560.354c11.869,0,21.525-9.653,21.525-21.52V246.56
					c0-11.866-9.654-21.52-21.521-21.52H166.573v-1.282h-1.924v-7.685h9.608v1.282h552.674c16.104,0,29.205,13.101,29.205,29.205
					v119.389c0,16.104-13.103,29.205-29.209,29.205h-552.67V395.794L174.257,395.794z"/>
				<path fill="none" stroke="#60646B" stroke-width="7.6844" stroke-miterlimit="10" d="M86.418,305.799l-0.038,0.004
					c0.008,0.043,0.012,0.089,0.017,0.13c-0.005,0.044-0.009,0.084-0.017,0.132l0.038,0.004"/>
				<rect x="600.567" y="252.071" fill="#515353" width="76.853" height="116.556"/>
				<rect x="667.812" y="252.071" width="31.715" height="116.556"/>
				<rect x="608.253" y="252.071" fill="#424447" width="2.562" height="116.556"/>
				<path fill="#A1AAA9" d="M667.171,204.681v208.774V204.681z"/>
				<rect x="590.858" y="368.625" width="94.697" height="12.325"/>
				<rect x="644.119" y="252.071" fill="#D8D8D6" width="23.057" height="116.556"/>
				<polygon fill="#424447" points="666.585,413.456 666.585,149.867 669.541,152.748 669.541,413.456 				"/>
				<polygon fill="#6C6D6E" points="644.119,370.81 658.849,470.133 667.171,470.133 667.171,370.81 				"/>
				<polygon fill="#424447" points="666.585,207.504 666.585,470.133 669.541,468.209 669.541,207.504 				"/>
				<path fill="#1A1B24" d="M641.458,328.491c-10.021,0-18.143-8.121-18.143-18.145c0-10.021,8.12-18.141,18.143-18.141
					c10.021,0,18.141,8.12,18.141,18.141C659.599,320.37,651.479,328.491,641.458,328.491"/>
				<rect x="440.141" y="284.841" fill="#06060B" width="99.802" height="42.578"/>
				<rect x="441.375" y="282.435" fill="#11869C" width="98.567" height="42.575"/>
				<rect x="442.593" y="284.002" fill="#0A6E80" width="96.069" height="39.861"/>
				<rect x="536.271" y="284.002" fill="#11869C" width="1.103" height="39.861"/>
				<rect x="533.69" y="284.002" fill="#11869C" width="1.102" height="39.861"/>
				<rect x="531.11" y="284.002" fill="#11869C" width="1.103" height="39.861"/>
				<rect x="528.526" y="284.002" fill="#11869C" width="1.103" height="39.861"/>
				<rect x="525.94" y="284.002" fill="#11869C" width="1.104" height="39.861"/>
				<rect x="523.359" y="284.002" fill="#11869C" width="1.1" height="39.861"/>
				<rect x="520.775" y="284.002" fill="#11869C" width="1.104" height="39.861"/>
				<rect x="518.195" y="284.002" fill="#11869C" width="1.1" height="39.861"/>
				<rect x="515.609" y="284.002" fill="#11869C" width="1.104" height="39.861"/>
				<rect x="513.025" y="284.002" fill="#11869C" width="1.104" height="39.861"/>
				<rect x="510.445" y="284.002" fill="#11869C" width="1.101" height="39.861"/>
				<rect x="507.862" y="284.002" fill="#11869C" width="1.1" height="39.861"/>
				<rect x="505.276" y="284.002" fill="#11869C" width="1.104" height="39.861"/>
				<rect x="502.693" y="284.002" fill="#11869C" width="1.103" height="39.861"/>
				<rect x="500.112" y="284.002" fill="#11869C" width="1.101" height="39.861"/>
				<rect x="497.53" y="284.002" fill="#11869C" width="1.101" height="39.861"/>
				<rect x="494.945" y="284.002" fill="#11869C" width="1.104" height="39.861"/>
				<rect x="492.362" y="284.002" fill="#11869C" width="1.102" height="39.861"/>
				<rect x="489.78" y="284.002" fill="#11869C" width="1.104" height="39.861"/>
				<rect x="487.197" y="284.002" fill="#11869C" width="1.103" height="39.861"/>
				<rect x="484.615" y="284.002" fill="#11869C" width="1.102" height="39.861"/>
				<rect x="482.031" y="284.002" fill="#11869C" width="1.104" height="39.861"/>
				<rect x="479.447" y="284.002" fill="#11869C" width="1.103" height="39.861"/>
				<rect x="476.865" y="284.002" fill="#11869C" width="1.103" height="39.861"/>
				<rect x="474.285" y="284.002" fill="#11869C" width="1.101" height="39.861"/>
				<rect x="471.697" y="284.002" fill="#11869C" width="1.104" height="39.861"/>
				<rect x="469.115" y="284.002" fill="#11869C" width="1.103" height="39.861"/>
				<rect x="466.532" y="284.002" fill="#11869C" width="1.102" height="39.861"/>
				<rect x="463.951" y="284.002" fill="#11869C" width="1.103" height="39.861"/>
				<rect x="461.365" y="284.002" fill="#11869C" width="1.104" height="39.861"/>
				<rect x="458.782" y="284.002" fill="#11869C" width="1.104" height="39.861"/>
				<rect x="456.201" y="284.002" fill="#11869C" width="1.103" height="39.861"/>
				<rect x="453.618" y="284.002" fill="#11869C" width="1.104" height="39.861"/>
				<rect x="451.037" y="284.002" fill="#11869C" width="1.104" height="39.861"/>
				<rect x="448.451" y="284.002" fill="#11869C" width="1.104" height="39.861"/>
				<rect x="445.869" y="284.002" fill="#11869C" width="1.103" height="39.861"/>
				<rect x="443.287" y="284.002" fill="#11869C" width="1.101" height="39.861"/>
				<rect x="440.141" y="329.749" fill="#06060B" width="99.802" height="42.578"/>
				<rect x="441.375" y="325.342" fill="#11869C" width="98.567" height="42.575"/>
				<rect x="442.593" y="326.909" fill="#0A6E80" width="96.069" height="39.859"/>
				<rect x="536.271" y="326.909" fill="#11869C" width="1.103" height="39.859"/>
				<rect x="533.69" y="326.909" fill="#11869C" width="1.102" height="39.859"/>
				<rect x="531.11" y="326.909" fill="#11869C" width="1.103" height="39.859"/>
				<rect x="528.526" y="326.909" fill="#11869C" width="1.103" height="39.859"/>
				<rect x="525.94" y="326.909" fill="#11869C" width="1.104" height="39.859"/>
				<rect x="523.359" y="326.909" fill="#11869C" width="1.1" height="39.859"/>
				<rect x="520.775" y="326.909" fill="#11869C" width="1.104" height="39.859"/>
				<rect x="518.195" y="326.909" fill="#11869C" width="1.1" height="39.859"/>
				<rect x="515.609" y="326.909" fill="#11869C" width="1.104" height="39.859"/>
				<rect x="513.025" y="326.909" fill="#11869C" width="1.104" height="39.859"/>
				<rect x="510.445" y="326.909" fill="#11869C" width="1.101" height="39.859"/>
				<rect x="507.862" y="326.909" fill="#11869C" width="1.1" height="39.859"/>
				<rect x="505.276" y="326.909" fill="#11869C" width="1.104" height="39.859"/>
				<rect x="502.693" y="326.909" fill="#11869C" width="1.103" height="39.859"/>
				<rect x="500.112" y="326.909" fill="#11869C" width="1.101" height="39.859"/>
				<rect x="497.53" y="326.909" fill="#11869C" width="1.101" height="39.859"/>
				<rect x="494.945" y="326.909" fill="#11869C" width="1.104" height="39.859"/>
				<rect x="492.362" y="326.909" fill="#11869C" width="1.102" height="39.859"/>
				<rect x="489.78" y="326.909" fill="#11869C" width="1.104" height="39.859"/>
				<rect x="487.197" y="326.909" fill="#11869C" width="1.103" height="39.859"/>
				<rect x="484.615" y="326.909" fill="#11869C" width="1.102" height="39.859"/>
				<rect x="482.031" y="326.909" fill="#11869C" width="1.104" height="39.859"/>
				<rect x="479.447" y="326.909" fill="#11869C" width="1.103" height="39.859"/>
				<rect x="476.865" y="326.909" fill="#11869C" width="1.103" height="39.859"/>
				<rect x="474.285" y="326.909" fill="#11869C" width="1.101" height="39.859"/>
				<rect x="471.697" y="326.909" fill="#11869C" width="1.104" height="39.859"/>
				<rect x="469.115" y="326.909" fill="#11869C" width="1.103" height="39.859"/>
				<rect x="466.532" y="326.909" fill="#11869C" width="1.102" height="39.859"/>
				<rect x="463.951" y="326.909" fill="#11869C" width="1.103" height="39.859"/>
				<rect x="461.365" y="326.909" fill="#11869C" width="1.104" height="39.859"/>
				<rect x="458.782" y="326.909" fill="#11869C" width="1.104" height="39.859"/>
				<rect x="456.201" y="326.909" fill="#11869C" width="1.103" height="39.859"/>
				<rect x="453.618" y="326.909" fill="#11869C" width="1.104" height="39.859"/>
				<rect x="451.037" y="326.909" fill="#11869C" width="1.104" height="39.859"/>
				<rect x="448.451" y="326.909" fill="#11869C" width="1.104" height="39.859"/>
				<rect x="445.869" y="326.909" fill="#11869C" width="1.103" height="39.859"/>
				<rect x="443.287" y="326.909" fill="#11869C" width="1.101" height="39.859"/>
				<rect x="444.141" y="240.5" fill="#06060B" width="99.802" height="42.578"/>
				<rect x="700.039" y="258.765" fill="#11869C" width="42.574" height="98.566"/>
				<rect x="701.185" y="259.983" fill="#0A6E80" width="39.861" height="96.069"/>
				<rect x="701.185" y="353.662" fill="#11869C" width="39.861" height="1.102"/>
				<rect x="701.185" y="351.08" fill="#11869C" width="39.861" height="1.102"/>
				<rect x="701.185" y="348.5" fill="#11869C" width="39.861" height="1.102"/>
				<rect x="701.185" y="345.916" fill="#11869C" width="39.861" height="1.102"/>
				<rect x="701.185" y="343.33" fill="#11869C" width="39.861" height="1.104"/>
				<rect x="701.185" y="340.75" fill="#11869C" width="39.861" height="1.1"/>
				<rect x="701.185" y="338.166" fill="#11869C" width="39.861" height="1.102"/>
				<rect x="701.185" y="335.585" fill="#11869C" width="39.861" height="1.1"/>
				<rect x="701.185" y="333" fill="#11869C" width="39.861" height="1.104"/>
				<rect x="701.185" y="330.416" fill="#11869C" width="39.861" height="1.104"/>
				<rect x="701.185" y="327.835" fill="#11869C" width="39.861" height="1.1"/>
				<rect x="701.185" y="325.251" fill="#11869C" width="39.861" height="1.1"/>
				<rect x="701.185" y="322.666" fill="#11869C" width="39.861" height="1.104"/>
				<rect x="701.185" y="320.083" fill="#11869C" width="39.861" height="1.102"/>
				<rect x="701.185" y="317.501" fill="#11869C" width="39.861" height="1.1"/>
				<rect x="701.185" y="314.919" fill="#11869C" width="39.861" height="1.1"/>
				<rect x="701.185" y="312.335" fill="#11869C" width="39.861" height="1.104"/>
				<rect x="701.185" y="309.751" fill="#11869C" width="39.861" height="1.103"/>
				<rect x="701.185" y="307.169" fill="#11869C" width="39.861" height="1.104"/>
				<rect x="701.185" y="304.587" fill="#11869C" width="39.861" height="1.103"/>
				<rect x="701.185" y="302.005" fill="#11869C" width="39.861" height="1.101"/>
				<rect x="701.185" y="299.421" fill="#11869C" width="39.861" height="1.104"/>
				<rect x="701.185" y="296.837" fill="#11869C" width="39.861" height="1.103"/>
				<rect x="701.185" y="294.255" fill="#11869C" width="39.861" height="1.103"/>
				<rect x="701.185" y="291.675" fill="#11869C" width="39.861" height="1.101"/>
				<rect x="701.185" y="289.087" fill="#11869C" width="39.861" height="1.105"/>
				<rect x="701.185" y="286.505" fill="#11869C" width="39.861" height="1.103"/>
				<rect x="701.185" y="283.921" fill="#11869C" width="39.861" height="1.103"/>
				<rect x="701.185" y="281.341" fill="#11869C" width="39.861" height="1.103"/>
				<rect x="701.185" y="278.755" fill="#11869C" width="39.861" height="1.105"/>
				<rect x="701.185" y="276.171" fill="#11869C" width="39.861" height="1.104"/>
				<rect x="701.185" y="273.591" fill="#11869C" width="39.861" height="1.103"/>
				<rect x="701.185" y="271.007" fill="#11869C" width="39.861" height="1.104"/>
				<rect x="701.185" y="268.427" fill="#11869C" width="39.861" height="1.104"/>
				<rect x="701.185" y="265.841" fill="#11869C" width="39.861" height="1.104"/>
				<rect x="701.185" y="263.259" fill="#11869C" width="39.861" height="1.103"/>
				<rect x="701.185" y="260.677" fill="#11869C" width="39.861" height="1.101"/>
				<rect x="340.285" y="284.841" fill="#06060B" width="99.802" height="42.578"/>
				<rect x="341.52" y="282.435" fill="#11869C" width="98.567" height="42.575"/>
				<rect x="342.737" y="284.002" fill="#0A6E80" width="96.07" height="39.861"/>
				<rect x="436.417" y="284.002" fill="#11869C" width="1.103" height="39.861"/>
				<rect x="433.835" y="284.002" fill="#11869C" width="1.102" height="39.861"/>
				<rect x="431.254" y="284.002" fill="#11869C" width="1.103" height="39.861"/>
				<rect x="428.67" y="284.002" fill="#11869C" width="1.103" height="39.861"/>
				<rect x="426.085" y="284.002" fill="#11869C" width="1.104" height="39.861"/>
				<rect x="423.504" y="284.002" fill="#11869C" width="1.1" height="39.861"/>
				<rect x="420.92" y="284.002" fill="#11869C" width="1.104" height="39.861"/>
				<rect x="418.34" y="284.002" fill="#11869C" width="1.101" height="39.861"/>
				<rect x="415.754" y="284.002" fill="#11869C" width="1.104" height="39.861"/>
				<rect x="413.17" y="284.002" fill="#11869C" width="1.104" height="39.861"/>
				<rect x="410.59" y="284.002" fill="#11869C" width="1.101" height="39.861"/>
				<rect x="408.007" y="284.002" fill="#11869C" width="1.1" height="39.861"/>
				<rect x="405.421" y="284.002" fill="#11869C" width="1.104" height="39.861"/>
				<rect x="402.838" y="284.002" fill="#11869C" width="1.103" height="39.861"/>
				<rect x="400.257" y="284.002" fill="#11869C" width="1.101" height="39.861"/>
				<rect x="397.675" y="284.002" fill="#11869C" width="1.101" height="39.861"/>
				<rect x="395.09" y="284.002" fill="#11869C" width="1.104" height="39.861"/>
				<rect x="392.507" y="284.002" fill="#11869C" width="1.101" height="39.861"/>
				<rect x="389.925" y="284.002" fill="#11869C" width="1.103" height="39.861"/>
				<rect x="387.342" y="284.002" fill="#11869C" width="1.102" height="39.861"/>
				<rect x="384.76" y="284.002" fill="#11869C" width="1.101" height="39.861"/>
				<rect x="382.176" y="284.002" fill="#11869C" width="1.104" height="39.861"/>
				<rect x="379.592" y="284.002" fill="#11869C" width="1.102" height="39.861"/>
				<rect x="377.01" y="284.002" fill="#11869C" width="1.102" height="39.861"/>
				<rect x="374.43" y="284.002" fill="#11869C" width="1.1" height="39.861"/>
				<rect x="371.842" y="284.002" fill="#11869C" width="1.104" height="39.861"/>
				<rect x="369.26" y="284.002" fill="#11869C" width="1.102" height="39.861"/>
				<rect x="366.677" y="284.002" fill="#11869C" width="1.101" height="39.861"/>
				<rect x="364.096" y="284.002" fill="#11869C" width="1.102" height="39.861"/>
				<rect x="361.51" y="284.002" fill="#11869C" width="1.104" height="39.861"/>
				<rect x="358.927" y="284.002" fill="#11869C" width="1.104" height="39.861"/>
				<rect x="356.346" y="284.002" fill="#11869C" width="1.102" height="39.861"/>
				<rect x="353.763" y="284.002" fill="#11869C" width="1.103" height="39.861"/>
				<rect x="351.182" y="284.002" fill="#11869C" width="1.104" height="39.861"/>
				<rect x="348.596" y="284.002" fill="#11869C" width="1.104" height="39.861"/>
				<rect x="346.014" y="284.002" fill="#11869C" width="1.102" height="39.861"/>
				<rect x="343.432" y="284.002" fill="#11869C" width="1.1" height="39.861"/>
				<rect x="340.285" y="329.749" fill="#06060B" width="99.802" height="42.578"/>
				<rect x="341.52" y="325.342" fill="#11869C" width="98.567" height="42.575"/>
				<rect x="342.737" y="326.909" fill="#0A6E80" width="96.07" height="39.859"/>
				<rect x="436.417" y="326.909" fill="#11869C" width="1.103" height="39.859"/>
				<rect x="433.835" y="326.909" fill="#11869C" width="1.102" height="39.859"/>
				<rect x="431.254" y="326.909" fill="#11869C" width="1.103" height="39.859"/>
				<rect x="428.67" y="326.909" fill="#11869C" width="1.103" height="39.859"/>
				<rect x="426.085" y="326.909" fill="#11869C" width="1.104" height="39.859"/>
				<rect x="423.504" y="326.909" fill="#11869C" width="1.1" height="39.859"/>
				<rect x="420.92" y="326.909" fill="#11869C" width="1.104" height="39.859"/>
				<rect x="418.34" y="326.909" fill="#11869C" width="1.101" height="39.859"/>
				<rect x="415.754" y="326.909" fill="#11869C" width="1.104" height="39.859"/>
				<rect x="413.17" y="326.909" fill="#11869C" width="1.104" height="39.859"/>
				<rect x="410.59" y="326.909" fill="#11869C" width="1.101" height="39.859"/>
				<rect x="408.007" y="326.909" fill="#11869C" width="1.1" height="39.859"/>
				<rect x="405.421" y="326.909" fill="#11869C" width="1.104" height="39.859"/>
				<rect x="402.838" y="326.909" fill="#11869C" width="1.103" height="39.859"/>
				<rect x="400.257" y="326.909" fill="#11869C" width="1.101" height="39.859"/>
				<rect x="397.675" y="326.909" fill="#11869C" width="1.101" height="39.859"/>
				<rect x="395.09" y="326.909" fill="#11869C" width="1.104" height="39.859"/>
				<rect x="392.507" y="326.909" fill="#11869C" width="1.101" height="39.859"/>
				<rect x="389.925" y="326.909" fill="#11869C" width="1.103" height="39.859"/>
				<rect x="387.342" y="326.909" fill="#11869C" width="1.102" height="39.859"/>
				<rect x="384.76" y="326.909" fill="#11869C" width="1.101" height="39.859"/>
				<rect x="382.176" y="326.909" fill="#11869C" width="1.104" height="39.859"/>
				<rect x="379.592" y="326.909" fill="#11869C" width="1.102" height="39.859"/>
				<rect x="377.01" y="326.909" fill="#11869C" width="1.102" height="39.859"/>
				<rect x="374.43" y="326.909" fill="#11869C" width="1.1" height="39.859"/>
				<rect x="371.842" y="326.909" fill="#11869C" width="1.104" height="39.859"/>
				<rect x="369.26" y="326.909" fill="#11869C" width="1.102" height="39.859"/>
				<rect x="366.677" y="326.909" fill="#11869C" width="1.101" height="39.859"/>
				<rect x="364.096" y="326.909" fill="#11869C" width="1.102" height="39.859"/>
				<rect x="361.51" y="326.909" fill="#11869C" width="1.104" height="39.859"/>
				<rect x="358.927" y="326.909" fill="#11869C" width="1.104" height="39.859"/>
				<rect x="356.346" y="326.909" fill="#11869C" width="1.102" height="39.859"/>
				<rect x="353.763" y="326.909" fill="#11869C" width="1.103" height="39.859"/>
				<rect x="351.182" y="326.909" fill="#11869C" width="1.104" height="39.859"/>
				<rect x="348.596" y="326.909" fill="#11869C" width="1.104" height="39.859"/>
				<rect x="346.014" y="326.909" fill="#11869C" width="1.102" height="39.859"/>
				<rect x="343.432" y="326.909" fill="#11869C" width="1.1" height="39.859"/>
				<rect x="342.285" y="240.5" fill="#06060B" width="99.802" height="42.578"/>
				<rect x="341.52" y="240.094" fill="#11869C" width="98.567" height="42.575"/>
				<rect x="342.737" y="241.661" fill="#0A6E80" width="96.07" height="39.861"/>
				<rect x="436.417" y="241.661" fill="#11869C" width="1.103" height="39.861"/>
				<rect x="433.835" y="241.661" fill="#11869C" width="1.102" height="39.861"/>
				<rect x="431.254" y="241.661" fill="#11869C" width="1.103" height="39.861"/>
				<rect x="428.67" y="241.661" fill="#11869C" width="1.103" height="39.861"/>
				<rect x="426.085" y="241.661" fill="#11869C" width="1.104" height="39.861"/>
				<rect x="423.504" y="241.661" fill="#11869C" width="1.1" height="39.861"/>
				<rect x="420.92" y="241.661" fill="#11869C" width="1.104" height="39.861"/>
				<rect x="418.34" y="241.661" fill="#11869C" width="1.101" height="39.861"/>
				<rect x="415.754" y="241.661" fill="#11869C" width="1.104" height="39.861"/>
				<rect x="413.17" y="241.661" fill="#11869C" width="1.104" height="39.861"/>
				<rect x="410.59" y="241.661" fill="#11869C" width="1.101" height="39.861"/>
				<rect x="408.007" y="241.661" fill="#11869C" width="1.1" height="39.861"/>
				<rect x="405.421" y="241.661" fill="#11869C" width="1.104" height="39.861"/>
				<rect x="402.838" y="241.661" fill="#11869C" width="1.103" height="39.861"/>
				<rect x="400.257" y="241.661" fill="#11869C" width="1.101" height="39.861"/>
				<rect x="397.675" y="241.661" fill="#11869C" width="1.101" height="39.861"/>
				<rect x="395.09" y="241.661" fill="#11869C" width="1.104" height="39.861"/>
				<rect x="392.507" y="241.661" fill="#11869C" width="1.101" height="39.861"/>
				<rect x="389.925" y="241.661" fill="#11869C" width="1.103" height="39.861"/>
				<rect x="387.342" y="241.661" fill="#11869C" width="1.102" height="39.861"/>
				<rect x="384.76" y="241.661" fill="#11869C" width="1.101" height="39.861"/>
				<rect x="382.176" y="241.661" fill="#11869C" width="1.104" height="39.861"/>
				<rect x="379.592" y="241.661" fill="#11869C" width="1.102" height="39.861"/>
				<rect x="377.01" y="241.661" fill="#11869C" width="1.102" height="39.861"/>
				<rect x="374.43" y="241.661" fill="#11869C" width="1.1" height="39.861"/>
				<rect x="371.842" y="241.661" fill="#11869C" width="1.104" height="39.861"/>
				<rect x="369.26" y="241.661" fill="#11869C" width="1.102" height="39.861"/>
				<rect x="366.677" y="241.661" fill="#11869C" width="1.101" height="39.861"/>
				<rect x="364.096" y="241.661" fill="#11869C" width="1.102" height="39.861"/>
				<rect x="361.51" y="241.661" fill="#11869C" width="1.104" height="39.861"/>
				<rect x="358.927" y="241.661" fill="#11869C" width="1.104" height="39.861"/>
				<rect x="356.346" y="241.661" fill="#11869C" width="1.102" height="39.861"/>
				<rect x="353.763" y="241.661" fill="#11869C" width="1.103" height="39.861"/>
				<rect x="351.182" y="241.661" fill="#11869C" width="1.104" height="39.861"/>
				<rect x="348.596" y="241.661" fill="#11869C" width="1.104" height="39.861"/>
				<rect x="346.014" y="241.661" fill="#11869C" width="1.102" height="39.861"/>
				<rect x="343.432" y="241.661" fill="#11869C" width="1.1" height="39.861"/>
				<rect x="240.43" y="284.841" fill="#06060B" width="99.801" height="42.578"/>
				<rect x="241.664" y="282.435" fill="#11869C" width="98.567" height="42.575"/>
				<rect x="242.882" y="284.002" fill="#0A6E80" width="96.07" height="39.861"/>
				<rect x="336.561" y="284.002" fill="#11869C" width="1.102" height="39.861"/>
				<rect x="333.979" y="284.002" fill="#11869C" width="1.102" height="39.861"/>
				<rect x="331.399" y="284.002" fill="#11869C" width="1.102" height="39.861"/>
				<rect x="328.815" y="284.002" fill="#11869C" width="1.102" height="39.861"/>
				<rect x="326.229" y="284.002" fill="#11869C" width="1.104" height="39.861"/>
				<rect x="323.648" y="284.002" fill="#11869C" width="1.1" height="39.861"/>
				<rect x="321.064" y="284.002" fill="#11869C" width="1.103" height="39.861"/>
				<rect x="318.484" y="284.002" fill="#11869C" width="1.1" height="39.861"/>
				<rect x="315.898" y="284.002" fill="#11869C" width="1.104" height="39.861"/>
				<rect x="313.314" y="284.002" fill="#11869C" width="1.104" height="39.861"/>
				<rect x="310.734" y="284.002" fill="#11869C" width="1.1" height="39.861"/>
				<rect x="308.151" y="284.002" fill="#11869C" width="1.099" height="39.861"/>
				<rect x="305.565" y="284.002" fill="#11869C" width="1.104" height="39.861"/>
				<rect x="302.982" y="284.002" fill="#11869C" width="1.102" height="39.861"/>
				<rect x="300.401" y="284.002" fill="#11869C" width="1.1" height="39.861"/>
				<rect x="297.819" y="284.002" fill="#11869C" width="1.1" height="39.861"/>
				<rect x="295.234" y="284.002" fill="#11869C" width="1.104" height="39.861"/>
				<rect x="292.651" y="284.002" fill="#11869C" width="1.101" height="39.861"/>
				<rect x="290.069" y="284.002" fill="#11869C" width="1.103" height="39.861"/>
				<rect x="287.486" y="284.002" fill="#11869C" width="1.102" height="39.861"/>
				<rect x="284.904" y="284.002" fill="#11869C" width="1.101" height="39.861"/>
				<rect x="282.32" y="284.002" fill="#11869C" width="1.104" height="39.861"/>
				<rect x="279.736" y="284.002" fill="#11869C" width="1.102" height="39.861"/>
				<rect x="277.154" y="284.002" fill="#11869C" width="1.102" height="39.861"/>
				<rect x="274.574" y="284.002" fill="#11869C" width="1.1" height="39.861"/>
				<rect x="271.986" y="284.002" fill="#11869C" width="1.105" height="39.861"/>
				<rect x="269.404" y="284.002" fill="#11869C" width="1.102" height="39.861"/>
				<rect x="266.821" y="284.002" fill="#11869C" width="1.101" height="39.861"/>
				<rect x="264.24" y="284.002" fill="#11869C" width="1.102" height="39.861"/>
				<rect x="261.654" y="284.002" fill="#11869C" width="1.105" height="39.861"/>
				<rect x="259.071" y="284.002" fill="#11869C" width="1.104" height="39.861"/>
				<rect x="256.49" y="284.002" fill="#11869C" width="1.102" height="39.861"/>
				<rect x="253.907" y="284.002" fill="#11869C" width="1.103" height="39.861"/>
				<rect x="251.326" y="284.002" fill="#11869C" width="1.104" height="39.861"/>
				<rect x="248.74" y="284.002" fill="#11869C" width="1.104" height="39.861"/>
				<rect x="246.158" y="284.002" fill="#11869C" width="1.102" height="39.861"/>
				<rect x="243.576" y="284.002" fill="#11869C" width="1.1" height="39.861"/>
				<rect x="240.43" y="329.749" fill="#06060B" width="99.801" height="42.578"/>
				<rect x="241.664" y="325.342" fill="#11869C" width="98.567" height="42.575"/>
				<rect x="242.882" y="326.909" fill="#0A6E80" width="96.07" height="39.859"/>
				<rect x="336.561" y="326.909" fill="#11869C" width="1.102" height="39.859"/>
				<rect x="333.979" y="326.909" fill="#11869C" width="1.102" height="39.859"/>
				<rect x="331.399" y="326.909" fill="#11869C" width="1.102" height="39.859"/>
				<rect x="328.815" y="326.909" fill="#11869C" width="1.102" height="39.859"/>
				<rect x="326.229" y="326.909" fill="#11869C" width="1.104" height="39.859"/>
				<rect x="323.648" y="326.909" fill="#11869C" width="1.1" height="39.859"/>
				<rect x="321.064" y="326.909" fill="#11869C" width="1.103" height="39.859"/>
				<rect x="318.484" y="326.909" fill="#11869C" width="1.1" height="39.859"/>
				<rect x="315.898" y="326.909" fill="#11869C" width="1.104" height="39.859"/>
				<rect x="313.314" y="326.909" fill="#11869C" width="1.104" height="39.859"/>
				<rect x="310.734" y="326.909" fill="#11869C" width="1.1" height="39.859"/>
				<rect x="308.151" y="326.909" fill="#11869C" width="1.099" height="39.859"/>
				<rect x="305.565" y="326.909" fill="#11869C" width="1.104" height="39.859"/>
				<rect x="302.982" y="326.909" fill="#11869C" width="1.102" height="39.859"/>
				<rect x="300.401" y="326.909" fill="#11869C" width="1.1" height="39.859"/>
				<rect x="297.819" y="326.909" fill="#11869C" width="1.1" height="39.859"/>
				<rect x="295.234" y="326.909" fill="#11869C" width="1.104" height="39.859"/>
				<rect x="292.651" y="326.909" fill="#11869C" width="1.101" height="39.859"/>
				<rect x="290.069" y="326.909" fill="#11869C" width="1.103" height="39.859"/>
				<rect x="287.486" y="326.909" fill="#11869C" width="1.102" height="39.859"/>
				<rect x="284.904" y="326.909" fill="#11869C" width="1.101" height="39.859"/>
				<rect x="282.32" y="326.909" fill="#11869C" width="1.104" height="39.859"/>
				<rect x="279.736" y="326.909" fill="#11869C" width="1.102" height="39.859"/>
				<rect x="277.154" y="326.909" fill="#11869C" width="1.102" height="39.859"/>
				<rect x="274.574" y="326.909" fill="#11869C" width="1.1" height="39.859"/>
				<rect x="271.986" y="326.909" fill="#11869C" width="1.105" height="39.859"/>
				<rect x="269.404" y="326.909" fill="#11869C" width="1.102" height="39.859"/>
				<rect x="266.821" y="326.909" fill="#11869C" width="1.101" height="39.859"/>
				<rect x="264.24" y="326.909" fill="#11869C" width="1.102" height="39.859"/>
				<rect x="261.654" y="326.909" fill="#11869C" width="1.105" height="39.859"/>
				<rect x="259.071" y="326.909" fill="#11869C" width="1.104" height="39.859"/>
				<rect x="256.49" y="326.909" fill="#11869C" width="1.102" height="39.859"/>
				<rect x="253.907" y="326.909" fill="#11869C" width="1.103" height="39.859"/>
				<rect x="251.326" y="326.909" fill="#11869C" width="1.104" height="39.859"/>
				<rect x="248.74" y="326.909" fill="#11869C" width="1.104" height="39.859"/>
				<rect x="246.158" y="326.909" fill="#11869C" width="1.102" height="39.859"/>
				<rect x="243.576" y="326.909" fill="#11869C" width="1.1" height="39.859"/>
				<rect x="240.43" y="240.5" fill="#06060B" width="99.801" height="42.578"/>
				<rect x="241.664" y="240.094" fill="#11869C" width="98.567" height="42.575"/>
				<rect x="242.882" y="241.661" fill="#0A6E80" width="96.07" height="39.861"/>
				<rect x="336.561" y="241.661" fill="#11869C" width="1.102" height="39.861"/>
				<rect x="333.979" y="241.661" fill="#11869C" width="1.102" height="39.861"/>
				<rect x="331.399" y="241.661" fill="#11869C" width="1.102" height="39.861"/>
				<rect x="328.815" y="241.661" fill="#11869C" width="1.102" height="39.861"/>
				<rect x="326.229" y="241.661" fill="#11869C" width="1.104" height="39.861"/>
				<rect x="323.648" y="241.661" fill="#11869C" width="1.1" height="39.861"/>
				<rect x="321.064" y="241.661" fill="#11869C" width="1.103" height="39.861"/>
				<rect x="318.484" y="241.661" fill="#11869C" width="1.1" height="39.861"/>
				<rect x="315.898" y="241.661" fill="#11869C" width="1.104" height="39.861"/>
				<rect x="313.314" y="241.661" fill="#11869C" width="1.104" height="39.861"/>
				<rect x="310.734" y="241.661" fill="#11869C" width="1.1" height="39.861"/>
				<rect x="308.151" y="241.661" fill="#11869C" width="1.099" height="39.861"/>
				<rect x="305.565" y="241.661" fill="#11869C" width="1.104" height="39.861"/>
				<rect x="302.982" y="241.661" fill="#11869C" width="1.102" height="39.861"/>
				<rect x="300.401" y="241.661" fill="#11869C" width="1.1" height="39.861"/>
				<rect x="297.819" y="241.661" fill="#11869C" width="1.1" height="39.861"/>
				<rect x="295.234" y="241.661" fill="#11869C" width="1.104" height="39.861"/>
				<rect x="292.651" y="241.661" fill="#11869C" width="1.101" height="39.861"/>
				<rect x="290.069" y="241.661" fill="#11869C" width="1.103" height="39.861"/>
				<rect x="287.486" y="241.661" fill="#11869C" width="1.102" height="39.861"/>
				<rect x="284.904" y="241.661" fill="#11869C" width="1.101" height="39.861"/>
				<rect x="282.32" y="241.661" fill="#11869C" width="1.104" height="39.861"/>
				<rect x="279.736" y="241.661" fill="#11869C" width="1.102" height="39.861"/>
				<rect x="277.154" y="241.661" fill="#11869C" width="1.102" height="39.861"/>
				<rect x="274.574" y="241.661" fill="#11869C" width="1.1" height="39.861"/>
				<rect x="271.986" y="241.661" fill="#11869C" width="1.105" height="39.861"/>
				<rect x="269.404" y="241.661" fill="#11869C" width="1.102" height="39.861"/>
				<rect x="266.821" y="241.661" fill="#11869C" width="1.101" height="39.861"/>
				<rect x="264.24" y="241.661" fill="#11869C" width="1.102" height="39.861"/>
				<rect x="261.654" y="241.661" fill="#11869C" width="1.105" height="39.861"/>
				<rect x="259.071" y="241.661" fill="#11869C" width="1.104" height="39.861"/>
				<rect x="256.49" y="241.661" fill="#11869C" width="1.102" height="39.861"/>
				<rect x="253.907" y="241.661" fill="#11869C" width="1.103" height="39.861"/>
				<rect x="251.326" y="241.661" fill="#11869C" width="1.104" height="39.861"/>
				<rect x="248.74" y="241.661" fill="#11869C" width="1.104" height="39.861"/>
				<rect x="246.158" y="241.661" fill="#11869C" width="1.102" height="39.861"/>
				<rect x="243.576" y="241.661" fill="#11869C" width="1.1" height="39.861"/>
				<rect x="140.574" y="284.841" fill="#06060B" width="99.801" height="42.578"/>
				<rect x="141.809" y="282.435" fill="#11869C" width="98.567" height="42.575"/>
				<rect x="143.026" y="284.002" fill="#0A6E80" width="96.07" height="39.861"/>
				<rect x="236.706" y="284.002" fill="#11869C" width="1.102" height="39.861"/>
				<rect x="234.124" y="284.002" fill="#11869C" width="1.102" height="39.861"/>
				<rect x="231.543" y="284.002" fill="#11869C" width="1.102" height="39.861"/>
				<rect x="228.96" y="284.002" fill="#11869C" width="1.102" height="39.861"/>
				<rect x="226.374" y="284.002" fill="#11869C" width="1.105" height="39.861"/>
				<rect x="223.793" y="284.002" fill="#11869C" width="1.1" height="39.861"/>
				<rect x="221.209" y="284.002" fill="#11869C" width="1.103" height="39.861"/>
				<rect x="218.629" y="284.002" fill="#11869C" width="1.1" height="39.861"/>
				<rect x="216.043" y="284.002" fill="#11869C" width="1.104" height="39.861"/>
				<rect x="213.459" y="284.002" fill="#11869C" width="1.104" height="39.861"/>
				<rect x="210.879" y="284.002" fill="#11869C" width="1.1" height="39.861"/>
				<rect x="208.296" y="284.002" fill="#11869C" width="1.099" height="39.861"/>
				<rect x="205.71" y="284.002" fill="#11869C" width="1.104" height="39.861"/>
				<rect x="203.127" y="284.002" fill="#11869C" width="1.102" height="39.861"/>
				<rect x="200.546" y="284.002" fill="#11869C" width="1.1" height="39.861"/>
				<rect x="197.964" y="284.002" fill="#11869C" width="1.1" height="39.861"/>
				<rect x="195.379" y="284.002" fill="#11869C" width="1.104" height="39.861"/>
				<rect x="192.796" y="284.002" fill="#11869C" width="1.101" height="39.861"/>
				<rect x="190.214" y="284.002" fill="#11869C" width="1.103" height="39.861"/>
				<rect x="187.631" y="284.002" fill="#11869C" width="1.102" height="39.861"/>
				<rect x="185.049" y="284.002" fill="#11869C" width="1.101" height="39.861"/>
				<rect x="182.465" y="284.002" fill="#11869C" width="1.104" height="39.861"/>
				<rect x="179.881" y="284.002" fill="#11869C" width="1.102" height="39.861"/>
				<rect x="177.299" y="284.002" fill="#11869C" width="1.102" height="39.861"/>
				<rect x="174.719" y="284.002" fill="#11869C" width="1.1" height="39.861"/>
				<rect x="172.131" y="284.002" fill="#11869C" width="1.105" height="39.861"/>
				<rect x="169.549" y="284.002" fill="#11869C" width="1.102" height="39.861"/>
				<rect x="166.966" y="284.002" fill="#11869C" width="1.101" height="39.861"/>
				<rect x="164.385" y="284.002" fill="#11869C" width="1.102" height="39.861"/>
				<rect x="161.799" y="284.002" fill="#11869C" width="1.105" height="39.861"/>
				<rect x="159.216" y="284.002" fill="#11869C" width="1.104" height="39.861"/>
				<rect x="156.635" y="284.002" fill="#11869C" width="1.102" height="39.861"/>
				<rect x="154.052" y="284.002" fill="#11869C" width="1.103" height="39.861"/>
				<rect x="151.471" y="284.002" fill="#11869C" width="1.104" height="39.861"/>
				<rect x="148.885" y="284.002" fill="#11869C" width="1.104" height="39.861"/>
				<rect x="146.303" y="284.002" fill="#11869C" width="1.102" height="39.861"/>
				<rect x="143.721" y="284.002" fill="#11869C" width="1.1" height="39.861"/>
				<rect x="140.574" y="329.749" fill="#06060B" width="99.801" height="42.578"/>
				<rect x="141.809" y="325.342" fill="#11869C" width="98.567" height="42.575"/>
				<rect x="143.026" y="326.909" fill="#0A6E80" width="96.07" height="39.859"/>
				<rect x="236.706" y="326.909" fill="#11869C" width="1.102" height="39.859"/>
				<rect x="234.124" y="326.909" fill="#11869C" width="1.102" height="39.859"/>
				<rect x="231.543" y="326.909" fill="#11869C" width="1.102" height="39.859"/>
				<rect x="228.96" y="326.909" fill="#11869C" width="1.102" height="39.859"/>
				<rect x="226.374" y="326.909" fill="#11869C" width="1.105" height="39.859"/>
				<rect x="223.793" y="326.909" fill="#11869C" width="1.1" height="39.859"/>
				<rect x="221.209" y="326.909" fill="#11869C" width="1.103" height="39.859"/>
				<rect x="218.629" y="326.909" fill="#11869C" width="1.1" height="39.859"/>
				<rect x="216.043" y="326.909" fill="#11869C" width="1.104" height="39.859"/>
				<rect x="213.459" y="326.909" fill="#11869C" width="1.104" height="39.859"/>
				<rect x="210.879" y="326.909" fill="#11869C" width="1.1" height="39.859"/>
				<rect x="208.296" y="326.909" fill="#11869C" width="1.099" height="39.859"/>
				<rect x="205.71" y="326.909" fill="#11869C" width="1.104" height="39.859"/>
				<rect x="203.127" y="326.909" fill="#11869C" width="1.102" height="39.859"/>
				<rect x="200.546" y="326.909" fill="#11869C" width="1.1" height="39.859"/>
				<rect x="197.964" y="326.909" fill="#11869C" width="1.1" height="39.859"/>
				<rect x="195.379" y="326.909" fill="#11869C" width="1.104" height="39.859"/>
				<rect x="192.796" y="326.909" fill="#11869C" width="1.101" height="39.859"/>
				<rect x="190.214" y="326.909" fill="#11869C" width="1.103" height="39.859"/>
				<rect x="187.631" y="326.909" fill="#11869C" width="1.102" height="39.859"/>
				<rect x="185.049" y="326.909" fill="#11869C" width="1.101" height="39.859"/>
				<rect x="182.465" y="326.909" fill="#11869C" width="1.104" height="39.859"/>
				<rect x="179.881" y="326.909" fill="#11869C" width="1.102" height="39.859"/>
				<rect x="177.299" y="326.909" fill="#11869C" width="1.102" height="39.859"/>
				<rect x="174.719" y="326.909" fill="#11869C" width="1.1" height="39.859"/>
				<rect x="172.131" y="326.909" fill="#11869C" width="1.105" height="39.859"/>
				<rect x="169.549" y="326.909" fill="#11869C" width="1.102" height="39.859"/>
				<rect x="166.966" y="326.909" fill="#11869C" width="1.101" height="39.859"/>
				<rect x="164.385" y="326.909" fill="#11869C" width="1.102" height="39.859"/>
				<rect x="161.799" y="326.909" fill="#11869C" width="1.105" height="39.859"/>
				<rect x="159.216" y="326.909" fill="#11869C" width="1.104" height="39.859"/>
				<rect x="156.635" y="326.909" fill="#11869C" width="1.102" height="39.859"/>
				<rect x="154.052" y="326.909" fill="#11869C" width="1.103" height="39.859"/>
				<rect x="151.471" y="326.909" fill="#11869C" width="1.104" height="39.859"/>
				<rect x="148.885" y="326.909" fill="#11869C" width="1.104" height="39.859"/>
				<rect x="146.303" y="326.909" fill="#11869C" width="1.102" height="39.859"/>
				<rect x="143.721" y="326.909" fill="#11869C" width="1.1" height="39.859"/>
				<rect x="138.574" y="240.5" fill="#06060B" width="99.801" height="42.578"/>
				<rect x="141.809" y="240.094" fill="#0E7284" width="98.567" height="42.575"/>
				<rect x="143.026" y="241.661" fill="#006C81" width="96.07" height="39.861"/>
				<rect x="236.706" y="241.661" fill="#11869C" width="1.102" height="39.861"/>
				<rect x="234.124" y="241.661" fill="#11869C" width="1.102" height="39.861"/>
				<rect x="231.543" y="241.661" fill="#11869C" width="1.102" height="39.861"/>
				<rect x="228.96" y="241.661" fill="#11869C" width="1.102" height="39.861"/>
				<rect x="226.374" y="241.661" fill="#11869C" width="1.105" height="39.861"/>
				<rect x="223.793" y="241.661" fill="#11869C" width="1.1" height="39.861"/>
				<rect x="221.209" y="241.661" fill="#11869C" width="1.103" height="39.861"/>
				<rect x="218.629" y="241.661" fill="#11869C" width="1.1" height="39.861"/>
				<rect x="216.043" y="241.661" fill="#11869C" width="1.104" height="39.861"/>
				<rect x="213.459" y="241.661" fill="#11869C" width="1.104" height="39.861"/>
				<rect x="210.879" y="241.661" fill="#11869C" width="1.1" height="39.861"/>
				<rect x="208.296" y="241.661" fill="#11869C" width="1.099" height="39.861"/>
				<rect x="205.71" y="241.661" fill="#11869C" width="1.104" height="39.861"/>
				<rect x="203.127" y="241.661" fill="#11869C" width="1.102" height="39.861"/>
				<rect x="200.546" y="241.661" fill="#11869C" width="1.1" height="39.861"/>
				<rect x="197.964" y="241.661" fill="#11869C" width="1.1" height="39.861"/>
				<rect x="195.379" y="241.661" fill="#11869C" width="1.104" height="39.861"/>
				<rect x="192.796" y="241.661" fill="#11869C" width="1.101" height="39.861"/>
				<rect x="190.214" y="241.661" fill="#11869C" width="1.103" height="39.861"/>
				<rect x="187.631" y="241.661" fill="#11869C" width="1.102" height="39.861"/>
				<rect x="185.049" y="241.661" fill="#11869C" width="1.101" height="39.861"/>
				<rect x="182.465" y="241.661" fill="#11869C" width="1.104" height="39.861"/>
				<rect x="179.881" y="241.661" fill="#11869C" width="1.102" height="39.861"/>
				<rect x="177.299" y="241.661" fill="#11869C" width="1.102" height="39.861"/>
				<rect x="174.719" y="241.661" fill="#11869C" width="1.1" height="39.861"/>
				<rect x="172.131" y="241.661" fill="#11869C" width="1.105" height="39.861"/>
				<rect x="169.549" y="241.661" fill="#11869C" width="1.102" height="39.861"/>
				<rect x="166.966" y="241.661" fill="#11869C" width="1.101" height="39.861"/>
				<rect x="164.385" y="241.661" fill="#11869C" width="1.102" height="39.861"/>
				<rect x="161.799" y="241.661" fill="#11869C" width="1.105" height="39.861"/>
				<rect x="159.216" y="241.661" fill="#11869C" width="1.104" height="39.861"/>
				<rect x="156.635" y="241.661" fill="#11869C" width="1.102" height="39.861"/>
				<rect x="154.052" y="241.661" fill="#11869C" width="1.103" height="39.861"/>
				<rect x="151.471" y="241.661" fill="#11869C" width="1.104" height="39.861"/>
				<rect x="148.885" y="241.661" fill="#11869C" width="1.104" height="39.861"/>
				<rect x="146.303" y="241.661" fill="#11869C" width="1.102" height="39.861"/>
				<rect x="143.721" y="241.661" fill="#11869C" width="1.1" height="39.861"/>
				<path fill="#FDFEFF" d="M600.995,276.834c1.18,0,2.135-0.957,2.135-2.133v-15.43c0-1.181-0.955-2.134-2.135-2.134
					s-2.135,0.954-2.135,2.134v15.43C598.86,275.877,599.815,276.834,600.995,276.834"/>
				<path fill="#FDFEFF" d="M600.995,298.387c1.18,0,2.135-0.956,2.135-2.134v-15.431c0-1.177-0.955-2.133-2.135-2.133
					s-2.135,0.957-2.135,2.133v15.431C598.86,297.431,599.815,298.387,600.995,298.387"/>
				<path fill="#FDFEFF" d="M600.995,319.942c1.18,0,2.135-0.954,2.135-2.137v-15.43c0-1.178-0.955-2.132-2.135-2.132
					s-2.135,0.954-2.135,2.132v15.43C598.86,318.988,599.815,319.942,600.995,319.942"/>
				<path fill="#FDFEFF" d="M600.995,341.497c1.18,0,2.135-0.958,2.135-2.135v-15.432c0-1.178-0.955-2.133-2.135-2.133
					s-2.135,0.955-2.135,2.133v15.432C598.86,340.539,599.815,341.497,600.995,341.497"/>
				<path fill="#FDFEFF" d="M600.995,363.05c1.18,0,2.135-0.957,2.135-2.133v-15.432c0-1.181-0.955-2.135-2.135-2.135
					s-2.135,0.954-2.135,2.135v15.432C598.86,362.094,599.815,363.05,600.995,363.05"/>
				<rect x="590.323" y="252.071" width="10.246" height="128.88"/>
				<rect x="86.944" y="252.073" fill="#1D1E27" width="13.104" height="27.418"/>
				<rect x="86.944" y="293.439" fill="#1D1E27" width="13.104" height="27.421"/>
				<rect x="86.944" y="334.804" fill="#1D1E27" width="13.104" height="27.421"/>
				<rect x="117.651" y="230.909" fill="#424447" width="9.545" height="157.18"/>
				<rect x="112.878" y="219.916" fill="#424447" width="9.546" height="168.173"/>
				<rect x="73.2" y="230.91" fill="#424447" width="7.686" height="148.03"/>
				<rect x="55.749" y="245.909" fill="#424447" width="21.29" height="7.685"/>
				<rect x="86.945" y="252.629" fill="#424447" width="15.264" height="16.325"/>
				<rect x="86.945" y="295.143" fill="#424447" width="15.264" height="16.325"/>
				<rect x="86.945" y="336.507" fill="#424447" width="15.264" height="16.323"/>
				<rect x="669.541" y="258.415" fill="#C2C1C1" width="17.963" height="104.636"/>
				<path fill="#424447" d="M8,306.801l0.379-0.904c1.466-3.515,2.216-7.702,3.007-12.139c0.817-4.576,1.663-9.31,3.405-13.479
					c5.196-12.461,12.041-22.984,21.539-33.109c20.561-20.922,48.154-32.242,75.767-31.127l-0.486,7.674
					c-24.455-0.982-28.186,9.268-46.73,28.13c-8.795,9.379-15.185,19.207-20.045,30.864c-1.465,3.513-2.214,7.705-3.008,12.135
					c-0.755,4.234-1.535,8.606-3.024,12.538c8.116,37.242,17.925,78.036,66.769,80.426l-0.591,7.672
					c-54.483-2.671-88.36-47.354-96.78-87.735L8,306.801z"/>
				<g>
					<g>
						<g>
							<defs>
								<polygon id="SVGID_1_" points="667.171,367.925 644.117,367.925 658.849,470.133 667.171,470.133 								"/>
							</defs>
							<clipPath id="SVGID_2_">
								<use xlink:href="#SVGID_1_"  overflow="visible"/>
							</clipPath>
							<path clip-path="url(#SVGID_2_)" fill="#FDFEFF" d="M656.408,451.258c1.168-0.182,2.26,0.621,2.438,1.785l2.334,15.25
								c0.177,1.164-0.625,2.255-1.785,2.438c-1.17,0.179-2.256-0.625-2.438-1.786l-2.334-15.252
								C654.443,452.528,655.244,451.435,656.408,451.258"/>
						</g>
					</g>
					<g>
						<g>
							<defs>
								<polygon id="SVGID_3_" points="667.171,367.925 644.117,367.925 658.849,470.133 667.171,470.133 								"/>
							</defs>
							<clipPath id="SVGID_4_">
								<use xlink:href="#SVGID_3_"  overflow="visible"/>
							</clipPath>
							<path clip-path="url(#SVGID_4_)" fill="#FDFEFF" d="M653.148,429.954c1.164-0.178,2.252,0.618,2.436,1.785l2.33,15.25
								c0.182,1.166-0.619,2.256-1.783,2.435c-1.164,0.178-2.256-0.622-2.434-1.787l-2.336-15.251
								C651.179,431.219,651.98,430.131,653.148,429.954"/>
						</g>
					</g>
					<g>
						<g>
							<defs>
								<polygon id="SVGID_5_" points="667.171,367.925 644.117,367.925 658.849,470.133 667.171,470.133 								"/>
							</defs>
							<clipPath id="SVGID_6_">
								<use xlink:href="#SVGID_5_"  overflow="visible"/>
							</clipPath>
							<path clip-path="url(#SVGID_6_)" fill="#FDFEFF" d="M649.884,408.647c1.168-0.182,2.254,0.617,2.437,1.785l2.332,15.25
								c0.178,1.166-0.621,2.256-1.785,2.437c-1.164,0.177-2.256-0.624-2.435-1.785l-2.334-15.255
								C647.917,409.915,648.72,408.825,649.884,408.647"/>
						</g>
					</g>
					<g>
						<g>
							<defs>
								<polygon id="SVGID_7_" points="667.171,367.925 644.117,367.925 658.849,470.133 667.171,470.133 								"/>
							</defs>
							<clipPath id="SVGID_8_">
								<use xlink:href="#SVGID_7_"  overflow="visible"/>
							</clipPath>
							<path clip-path="url(#SVGID_8_)" fill="#FDFEFF" d="M646.623,387.341c1.168-0.18,2.252,0.618,2.436,1.787l2.334,15.249
								c0.177,1.166-0.625,2.256-1.787,2.438c-1.166,0.18-2.258-0.623-2.436-1.787l-2.334-15.253
								C644.658,388.609,645.457,387.521,646.623,387.341"/>
						</g>
					</g>
					<g>
						<g>
							<defs>
								<polygon id="SVGID_9_" points="667.171,367.925 644.117,367.925 658.849,470.133 667.171,470.133 								"/>
							</defs>
							<clipPath id="SVGID_10_">
								<use xlink:href="#SVGID_9_"  overflow="visible"/>
							</clipPath>
							<path clip-path="url(#SVGID_10_)" fill="#FDFEFF" d="M646.341,385.507c1.168-0.179,1.965-1.27,1.785-2.435l-1.896-12.371
								h-4.317l1.994,13.017C644.085,384.886,645.177,385.685,646.341,385.507"/>
						</g>
					</g>
				</g>
				<g opacity="0.4">
					<g>
						<g>
							<g>
								<defs>
									<rect id="SVGID_11_" x="598.86" y="252.071" width="68.312" height="116.556"/>
								</defs>
								<clipPath id="SVGID_12_">
									<use xlink:href="#SVGID_11_"  overflow="visible"/>
								</clipPath>
								<polygon clip-path="url(#SVGID_12_)" fill="#646764" points="667.171,368.616 666.585,365.32 610.816,365.32 
									603.131,365.32 603.131,252.072 598.862,252.072 598.862,368.627 667.171,368.627 								"/>
							</g>
						</g>
					</g>
				</g>
				<g opacity="0.4">
					<g>
						<g>
							<g>
								<defs>
									<rect id="SVGID_13_" x="669.539" y="262.611" width="16.018" height="26.23"/>
								</defs>
								<clipPath id="SVGID_14_">
									<use xlink:href="#SVGID_13_"  overflow="visible"/>
								</clipPath>
								<rect x="669.542" y="262.613" clip-path="url(#SVGID_14_)" fill="#646764" width="16.014" height="26.229"/>
							</g>
						</g>
					</g>
				</g>
				<g opacity="0.4">
					<g>
						<g>
							<g>
								<defs>
									<rect id="SVGID_15_" x="669.539" y="290.841" width="16.018" height="70.354"/>
								</defs>
								<clipPath id="SVGID_16_">
									<use xlink:href="#SVGID_15_"  overflow="visible"/>
								</clipPath>
								<rect x="669.541" y="290.841" clip-path="url(#SVGID_16_)" fill="#646764" width="16.014" height="70.354"/>
							</g>
						</g>
					</g>
				</g>
				<g opacity="0.4">
					<g>
						<g>
							<g>
								<defs>
									<rect id="SVGID_17_" x="642.998" y="254.146" width="23.59" height="111.174"/>
								</defs>
								<clipPath id="SVGID_18_">
									<use xlink:href="#SVGID_17_"  overflow="visible"/>
								</clipPath>
								<rect x="642.998" y="254.146" clip-path="url(#SVGID_18_)" fill="#646764" width="23.59" height="111.174"/>
							</g>
						</g>
					</g>
				</g>
				<polygon fill="#424447" points="743.384,230.909 735.697,223.753 110.296,223.753 110.296,230.909 				"/>
				<polygon fill="#6C6D6E" points="644.119,252.073 658.849,149.867 667.171,149.867 667.171,252.073 				"/>
				<g>
					<g>
						<g>
							<defs>
								<polygon id="SVGID_19_" points="667.171,149.866 658.849,149.866 644.117,252.073 667.171,252.073 								"/>
							</defs>
							<clipPath id="SVGID_20_">
								<use xlink:href="#SVGID_19_"  overflow="visible"/>
							</clipPath>
							<path clip-path="url(#SVGID_20_)" fill="#FDFEFF" d="M656.408,168.741c1.168,0.178,2.26-0.621,2.438-1.787l2.334-15.25
								c0.177-1.167-0.625-2.254-1.785-2.436c-1.17-0.179-2.256,0.624-2.438,1.785l-2.334,15.252
								C654.443,167.473,655.244,168.561,656.408,168.741"/>
						</g>
					</g>
					<g>
						<g>
							<defs>
								<polygon id="SVGID_21_" points="667.171,149.866 658.849,149.866 644.117,252.073 667.171,252.073 								"/>
							</defs>
							<clipPath id="SVGID_22_">
								<use xlink:href="#SVGID_21_"  overflow="visible"/>
							</clipPath>
							<path clip-path="url(#SVGID_22_)" fill="#FDFEFF" d="M653.148,190.045c1.164,0.18,2.252-0.62,2.436-1.786l2.33-15.251
								c0.182-1.165-0.619-2.254-1.783-2.435c-1.164-0.178-2.256,0.624-2.434,1.787l-2.336,15.254
								C651.179,188.782,651.98,189.868,653.148,190.045"/>
						</g>
					</g>
					<g>
						<g>
							<defs>
								<polygon id="SVGID_23_" points="667.171,149.866 658.849,149.866 644.117,252.073 667.171,252.073 								"/>
							</defs>
							<clipPath id="SVGID_24_">
								<use xlink:href="#SVGID_23_"  overflow="visible"/>
							</clipPath>
							<path clip-path="url(#SVGID_24_)" fill="#FDFEFF" d="M649.884,211.35c1.168,0.182,2.254-0.618,2.437-1.786l2.332-15.25
								c0.178-1.165-0.621-2.255-1.785-2.436c-1.164-0.176-2.256,0.624-2.435,1.788l-2.334,15.252
								C647.917,210.083,648.72,211.173,649.884,211.35"/>
						</g>
					</g>
					<g>
						<g>
							<defs>
								<polygon id="SVGID_25_" points="667.171,149.866 658.849,149.866 644.117,252.073 667.171,252.073 								"/>
							</defs>
							<clipPath id="SVGID_26_">
								<use xlink:href="#SVGID_25_"  overflow="visible"/>
							</clipPath>
							<path clip-path="url(#SVGID_26_)" fill="#FDFEFF" d="M646.623,232.658c1.168,0.179,2.252-0.62,2.436-1.785l2.334-15.252
								c0.177-1.164-0.625-2.253-1.787-2.437c-1.166-0.175-2.258,0.626-2.436,1.792l-2.334,15.249
								C644.658,231.39,645.457,232.481,646.623,232.658"/>
						</g>
					</g>
					<g>
						<g>
							<defs>
								<polygon id="SVGID_27_" points="667.171,149.866 658.849,149.866 644.117,252.073 667.171,252.073 								"/>
							</defs>
							<clipPath id="SVGID_28_">
								<use xlink:href="#SVGID_27_"  overflow="visible"/>
							</clipPath>
							<path clip-path="url(#SVGID_28_)" fill="#FDFEFF" d="M643.361,253.963c1.164,0.178,2.252-0.62,2.432-1.784l2.338-15.253
								c0.178-1.165-0.623-2.254-1.787-2.437c-1.164-0.175-2.252,0.627-2.434,1.79l-2.338,15.251
								C641.394,252.697,642.195,253.786,643.361,253.963"/>
						</g>
					</g>
				</g>
				<g opacity="0.4">
					<g>
						<g>
							<g>
								<defs>
									<rect id="SVGID_29_" x="644.117" y="243.939" width="22.471" height="8.131"/>
								</defs>
								<clipPath id="SVGID_30_">
									<use xlink:href="#SVGID_29_"  overflow="visible"/>
								</clipPath>
								<polygon clip-path="url(#SVGID_30_)" fill="#646764" points="666.585,243.94 645.441,243.94 644.119,252.072 
									666.585,252.072 								"/>
							</g>
						</g>
					</g>
				</g>
				<rect x="610.814" y="350.472" fill="#424447" width="25.416" height="5.959"/>
				<rect x="610.814" y="347.493" fill="#FDFEFF" width="25.416" height="5.959"/>
				<rect x="614.662" y="254.146" fill="#FDFEFF" width="23.543" height="8.465"/>
				<path d="M641.458,295.219c8.354,0,15.125,6.774,15.125,15.127c0,8.355-6.771,15.131-15.125,15.131
					c-8.357,0-15.129-6.773-15.129-15.131C626.33,301.994,633.101,295.219,641.458,295.219"/>
				<rect x="713.923" y="246.56" fill="none" width="7.683" height="119.389"/>
				<rect x="594.918" y="252.071" fill="#FFFFFF" width="2.561" height="116.556"/>
				<rect x="441.375" y="239.878" fill="#11869C" width="98.567" height="42.575"/>
				<rect x="442.593" y="241.445" fill="#0A6E80" width="96.069" height="39.86"/>
				<rect x="536.271" y="241.445" fill="#11869C" width="1.103" height="39.86"/>
				<rect x="533.69" y="241.445" fill="#11869C" width="1.102" height="39.86"/>
				<rect x="531.11" y="241.445" fill="#11869C" width="1.103" height="39.86"/>
				<rect x="528.526" y="241.445" fill="#11869C" width="1.103" height="39.86"/>
				<rect x="525.94" y="241.445" fill="#11869C" width="1.104" height="39.86"/>
				<rect x="523.359" y="241.445" fill="#11869C" width="1.1" height="39.86"/>
				<rect x="520.775" y="241.445" fill="#11869C" width="1.104" height="39.86"/>
				<rect x="518.195" y="241.445" fill="#11869C" width="1.1" height="39.86"/>
				<rect x="515.609" y="241.445" fill="#11869C" width="1.104" height="39.86"/>
				<rect x="513.025" y="241.445" fill="#11869C" width="1.104" height="39.86"/>
				<rect x="510.445" y="241.445" fill="#11869C" width="1.101" height="39.86"/>
				<rect x="507.862" y="241.445" fill="#11869C" width="1.1" height="39.86"/>
				<rect x="505.276" y="241.445" fill="#11869C" width="1.104" height="39.86"/>
				<rect x="502.693" y="241.445" fill="#11869C" width="1.103" height="39.86"/>
				<rect x="500.112" y="241.445" fill="#11869C" width="1.101" height="39.86"/>
				<rect x="497.53" y="241.445" fill="#11869C" width="1.101" height="39.86"/>
				<rect x="494.945" y="241.445" fill="#11869C" width="1.104" height="39.86"/>
				<rect x="492.362" y="241.445" fill="#11869C" width="1.102" height="39.86"/>
				<rect x="489.78" y="241.445" fill="#11869C" width="1.104" height="39.86"/>
				<rect x="487.197" y="241.445" fill="#11869C" width="1.103" height="39.86"/>
				<rect x="484.615" y="241.445" fill="#11869C" width="1.102" height="39.86"/>
				<rect x="482.031" y="241.445" fill="#11869C" width="1.104" height="39.86"/>
				<rect x="479.447" y="241.445" fill="#11869C" width="1.103" height="39.86"/>
				<rect x="476.865" y="241.445" fill="#11869C" width="1.103" height="39.86"/>
				<rect x="474.285" y="241.445" fill="#11869C" width="1.101" height="39.86"/>
				<rect x="471.697" y="241.445" fill="#11869C" width="1.104" height="39.86"/>
				<rect x="469.115" y="241.445" fill="#11869C" width="1.103" height="39.86"/>
				<rect x="466.532" y="241.445" fill="#11869C" width="1.102" height="39.86"/>
				<rect x="463.951" y="241.445" fill="#11869C" width="1.103" height="39.86"/>
				<rect x="461.365" y="241.445" fill="#11869C" width="1.104" height="39.86"/>
				<rect x="458.782" y="241.445" fill="#11869C" width="1.104" height="39.86"/>
				<rect x="456.201" y="241.445" fill="#11869C" width="1.103" height="39.86"/>
				<rect x="453.618" y="241.445" fill="#11869C" width="1.104" height="39.86"/>
				<rect x="451.037" y="241.445" fill="#11869C" width="1.104" height="39.86"/>
				<rect x="448.451" y="241.445" fill="#11869C" width="1.104" height="39.86"/>
				<rect x="445.869" y="241.445" fill="#11869C" width="1.103" height="39.86"/>
				<rect x="443.287" y="241.445" fill="#11869C" width="1.101" height="39.86"/>
				<rect x="534.417" y="236.094" fill="#06060B" width="9.523" height="135.198"/>
				<path fill="#231F20" d="M6.689,306.838l0.379-0.905c1.466-3.518,2.212-7.701,3.006-12.138c0.818-4.576,1.662-9.31,3.4-13.479
					c5.198-12.466,12.044-22.984,21.543-33.111c20.562-20.921,48.152-32.241,75.767-31.128l-0.484,7.676
					c-24.454-0.986-49.116,9.267-67.657,28.13c-8.801,9.379-15.189,19.206-20.048,30.861c-1.468,3.514-2.213,7.705-3.005,12.137
					c-0.762,4.234-1.542,8.604-3.029,12.539c8.119,37.24,38.855,78.034,87.696,80.426l-0.588,7.67
					c-54.486-2.668-88.363-47.352-96.782-87.736L6.689,306.838z"/>
				<line fill="none" stroke="#FFFFFF" stroke-miterlimit="10" x1="111.71" y1="227.492" x2="111.71" y2="388.159"/>
				<line fill="none" stroke="#FFFFFF" stroke-miterlimit="10" x1="81.71" y1="234.159" x2="81.71" y2="380.159"/>
				<line fill="none" stroke="#FFFFFF" stroke-miterlimit="10" x1="141.809" y1="240.094" x2="141.809" y2="366.771"/>
			</g>
		</g>
		<rect x="54.422" y="343.725" width="13.195" height="2.538"/>
		<rect x="54.422" y="337.381" width="13.195" height="2.538"/>
		<rect x="54.422" y="329.768" width="13.195" height="2.538"/>
		<rect x="54.422" y="323.424" width="13.195" height="2.538"/>
		<rect x="54.422" y="293.988" width="13.195" height="2.538"/>
		<rect x="54.422" y="287.645" width="13.195" height="2.538"/>
		<rect x="54.422" y="280.032" width="13.195" height="2.538"/>
		<rect x="54.422" y="273.688" width="13.195" height="2.538"/>
		
			<rect x="551.784" y="235.625" fill="none" stroke="#58595B" stroke-width="4" stroke-miterlimit="10" width="34.511" height="47.706"/>
		<path fill="#F47647" d="M568.639,239.178c0,0,10.99,0.105,10.781,19.783v18.841h-22.609v-19.469
			C556.811,258.333,557.858,240.225,568.639,239.178z"/>
		<path fill="#DF6C41" d="M568.639,240.853c0,0,10.99,0.105,10.781,19.783v18.841h-22.609v-19.469
			C556.811,260.008,557.858,241.9,568.639,240.853z"/>
		<rect x="558.905" y="254.565" fill="#CD633B" width="19.26" height="21.981"/>
		<rect x="558.905" y="254.565" fill="#FFFFFF" width="19.26" height="0.942"/>
		
			<line fill="none" stroke="#FFFFFF" stroke-width="0.3" stroke-miterlimit="10" x1="568.639" y1="239.178" x2="568.639" y2="255.036"/>
		<circle fill="#FFFFFF" stroke="#808285" stroke-miterlimit="10" cx="568.535" cy="265.555" r="4.292"/>
		<line fill="none" stroke="#808285" stroke-miterlimit="10" x1="550.682" y1="251.53" x2="586.061" y2="251.53"/>
		<line fill="none" stroke="#808285" stroke-miterlimit="10" x1="550.682" y1="264.614" x2="586.061" y2="264.614"/>
		<line fill="none" stroke="#808285" stroke-miterlimit="10" x1="550.682" y1="277.698" x2="586.061" y2="277.698"/>
		<path fill="#06060B" d="M572.198,280.314c0,2.081-1.688,3.768-3.769,3.768l0,0c-2.081,0-3.768-1.687-3.768-3.768v-1.675
			c0-2.081,1.687-3.768,3.768-3.768l0,0c2.081,0,3.769,1.687,3.769,3.768V280.314z"/>
		
			<rect x="551.784" y="333.376" fill="none" stroke="#58595B" stroke-width="4" stroke-miterlimit="10" width="34.511" height="47.706"/>
		<path fill="#F47647" d="M568.639,377.529c0,0,10.99-0.105,10.781-19.783v-18.841h-22.609v19.469
			C556.811,358.374,557.858,376.482,568.639,377.529z"/>
		<path fill="#DF6C41" d="M568.639,375.854c0,0,10.99-0.104,10.781-19.782V337.23h-22.609v19.469
			C556.811,356.699,557.858,374.807,568.639,375.854z"/>
		<rect x="558.905" y="340.161" fill="#CD633B" width="19.26" height="21.98"/>
		<rect x="558.905" y="361.2" fill="#FFFFFF" width="19.26" height="0.941"/>
		
			<line fill="none" stroke="#FFFFFF" stroke-width="0.3" stroke-miterlimit="10" x1="568.639" y1="377.529" x2="568.639" y2="361.671"/>
		<circle fill="#FFFFFF" stroke="#808285" stroke-miterlimit="10" cx="568.535" cy="351.152" r="4.292"/>
		<line fill="none" stroke="#808285" stroke-miterlimit="10" x1="550.682" y1="365.177" x2="586.061" y2="365.177"/>
		<line fill="none" stroke="#808285" stroke-miterlimit="10" x1="550.682" y1="352.093" x2="586.061" y2="352.093"/>
		<line fill="none" stroke="#808285" stroke-miterlimit="10" x1="550.682" y1="339.009" x2="586.061" y2="339.009"/>
		<path fill="#06060B" d="M572.198,336.393c0-2.08-1.688-3.768-3.769-3.768l0,0c-2.081,0-3.768,1.688-3.768,3.768v1.676
			c0,2.081,1.687,3.768,3.768,3.768l0,0c2.081,0,3.769-1.687,3.769-3.768V336.393z"/>
		<polygon points="65.009,244.228 62.858,240.502 65.009,236.777 69.31,236.777 71.461,240.502 69.31,244.228 		"/>
		<circle cx="38.91" cy="308.252" r="6.75"/>
		<circle cx="39.41" cy="269.252" r="1.75"/>
		<circle cx="37.16" cy="336.002" r="1.5"/>
		<circle cx="61.66" cy="364.502" r="4"/>
		<rect x="648.16" y="257.502" fill="#797A7D" width="14" height="35"/>
		<rect x="648.16" y="329.002" fill="#797A7D" width="14" height="35"/>
	</g>
</g>
</svg>
